<svg xmlns="http://www.w3.org/2000/svg" viewBox="0 0 128 128" width="128" height="128">
  <defs>
    <linearGradient id="bgGradient" x1="0%" y1="0%" x2="100%" y2="100%">
      <stop offset="0%" style="stop-color:#4A90D9;stop-opacity:1" />
      <stop offset="100%" style="stop-color:#357ABD;stop-opacity:1" />
    </linearGradient>
  </defs>
  
  <!-- Background rounded square -->
  <rect x="4" y="4" width="120" height="120" rx="16" ry="16" fill="url(#bgGradient)"/>
  
  <!-- Hash/Number symbol representing IDs -->
  <g fill="white" opacity="0.95">
    <!-- Horizontal lines of # -->
    <rect x="30" y="38" width="68" height="6" rx="2"/>
    <rect x="30" y="54" width="68" height="6" rx="2"/>
    
    <!-- Vertical lines of # (slanted) -->
    <rect x="44" y="24" width="6" height="52" rx="2" transform="rotate(-10 47 50)"/>
    <rect x="68" y="24" width="6" height="52" rx="2" transform="rotate(-10 71 50)"/>
  </g>
  
  <!-- Range indicator bar at bottom -->
  <rect x="20" y="78" width="88" height="8" rx="4" fill="white" opacity="0.3"/>
  
  <!-- Used range (filled portion) -->
  <rect x="20" y="78" width="55" height="8" rx="4" fill="white" opacity="0.9"/>
  
  <!-- Range markers -->
  <circle cx="20" cy="82" r="3" fill="#2ECC71"/>
  <circle cx="75" cy="82" r="3" fill="#F39C12"/>
  <circle cx="108" cy="82" r="3" fill="white" opacity="0.5"/>
  
  <!-- Small numbers -->
  <text x="20" y="102" font-family="Arial, sans-serif" font-size="11" font-weight="bold" fill="white" text-anchor="middle">50000</text>
  <text x="108" y="102" font-family="Arial, sans-serif" font-size="11" font-weight="bold" fill="white" text-anchor="middle">59999</text>
</svg>
